/* XPM */
static char *result[] = {
/* columns rows colors chars-per-pixel */
"32 32 5 1 ",
"  c #5B8D46",
". c #669151",
"X c #6F9659",
"o c #799B60",
"O c #76A261",
/* pixels */
"XXooXXooXXooXXXX..XXXXooooXXooXX",
"XXooXXooXXooXXXX..XXXXooooXXooXX",
"XXOOooXXXXoo..XXXXooooXXooXXoooo",
"XXOOooXXXXoo..XXXXooooXXooXXoooo",
"XX......XXXX..oo..XXXXXXXXXX....",
"XX......XXXX..oo..XXXXXXXXXX....",
"..ooooXXXXXXooooooooXXXXooooXXoo",
"..ooooXXXXXXooooooooXXXXooooXXoo",
"....XXXXXXXX....XXoooo..XX..XXoo",
"....XXXXXXXX....XXoooo..XX..XXoo",
"..XXXXooXXXXooXXooXX..XXoooooooo",
"..XXXXooXXXXooXXooXX..XXoooooooo",
"XX....XX....ooXXXXXXooXXXXXXXXoo",
"XX....XX....ooXXXXXXooXXXXXXXXoo",
"..ooXX....ooXXXXXXoo..XXXX..XXXX",
"..ooXX....ooXXXXXXoo..XXXX..XXXX",
"....XXXXooooXXXXooXXooooXXXXXX..",
"....XXXXooooXXXXooXXooooXXXXXX..",
"....XXXXooooXXoo..XXooXXXXXX..oo",
"....XXXXooooXXoo..XXooXXXXXX..oo",
"..ooooXXooooooooXX..XXXX....oo..",
"..ooooXXooooooooXX..XXXX....oo..",
"XXXXXXXX..XXooXXXXooXXXXXXoo..XX",
"XXXXXXXX..XXooXXXXooXXXXXXoo..XX",
"  ..XXXXXX..ooooXX..XX....ooooXX",
"  ..XXXXXX..ooooXX..XX....ooooXX",
"XX..ooooXXXX..oo..XXXXXXXX..ooXX",
"XX..ooooXXXX..oo..XXXXXXXX..ooXX",
"XXOOXXXXXX..XXXX..oo......XXXX..",
"XXOOXXXXXX..XXXX..oo......XXXX..",
"......oo..XX..ooXX....XX..XXXXoo",
"......oo..XX..ooXX....XX..XXXXoo"
};
