/* XPM */
static char *result[] = {
/* columns rows colors chars-per-pixel */
"32 32 12 1 ",
"  c #1C121C",
". c #0C2E44",
"X c #134C4C",
"o c #1E6F50",
"O c #33984B",
"+ c #5B8D46",
"@ c #669151",
"# c #6F9659",
"$ c #799B60",
"% c #76A261",
"& c #5AC54F",
"* c #99E65F",
/* pixels */
"##$$##$$##$$####&&OO##$$$$##$$##",
"##$$##$$##$$####&&OO##$$$$##$$##",
"##%%$$####ooooOOOO**oooooo##$$$$",
"##%%$$####ooooOOOO**oooooo##$$$$",
"##@@@@@@oo**OO&&**&&&&**oo##@@@@",
"##@@@@@@oo**OO&&**&&&&**oo##@@@@",
"@@$$ooooooOOOOOO&&&&OOOOOOXX##$$",
"@@$$ooooooOOOOOO&&&&OOOOOOXX##$$",
"@@XXOOOO**&&&&**OOOOOO****XXXX$$",
"@@XXOOOO**&&&&**OOOOOO****XXXX$$",
"@@XXXX&&OOOO**&&OO&&**&&&&OOooXX",
"@@XXXX&&OOOO**&&OO&&**&&&&OOooXX",
"##@@XX&&&&ooOOOOOO**&&&&oo****XX",
"##@@XX&&&&ooOOOOOO**&&&&oo****XX",
"@@XXoooooo**&&&&ooooOOOO&&&&XXXX",
"@@XXoooooo**&&&&ooooOOOO&&&&XXXX",
"XXXXoo**&&&&****OOoooooo**&&XX@@",
"XXXXoo**&&&&****OOoooooo**&&XX@@",
"XX&&XX**&&&&ooOOOO****&&ooXXXX$$",
"XX&&XX**&&&&ooOOOO****&&ooXXXX$$",
"..XXXX&&&&oooooooo**&&&&&&****XX",
"..XXXX&&&&oooooooo**&&&&&&****XX",
"##..XX**XXXXOO&&XXXXXX**&&&&&&..",
"##..XX**XXXXOO&&XXXXXX**&&&&&&..",
"++..ooXXXX&&&&OOXXOO&&&&XXXXoo..",
"++..ooXXXX&&&&OOXXOO&&&&XXXXoo..",
"##@@..XX&&OOOOXXXX&&OOOO&&XX....",
"##@@..XX&&OOOOXXXX&&OOOO&&XX....",
"##%%    XXXXXXXXooXX&&OO    ##@@",
"##%%    XXXXXXXXooXX&&OO    ##@@",
"@@@@@@$$    ooooXXXX  ##@@####$$",
"@@@@@@$$    ooooXXXX  ##@@####$$"
};
