/* XPM */
static char *result[] = {
/* columns rows colors chars-per-pixel */
"32 32 19 1 ",
"  c #1C121C",
". c #5D2C28",
"X c #3D5232",
"o c #415536",
"O c #46573A",
"+ c #0C2E44",
"@ c #134C4C",
"# c #1E6F50",
"$ c #8A4836",
"% c #C64524",
"& c #E07438",
"* c #33984B",
"= c #5B8D46",
"- c #669151",
"; c #6F9659",
": c #799B60",
"> c #76A261",
", c #5AC54F",
"< c #F9E6CF",
/* pixels */
";;::;;::;;::;;;;--####::::;;::;;",
";;::;;::;;::;;;;--####::::;;::;;",
";;>>::;;;;::--;;;;##**####;;::::",
";;>>::;;;;::--;;;;##**####;;::::",
";;------;;;;--::##,,,,**##;;----",
";;------;;;;--::##,,,,**##;;----",
"--::::;;;;;;::::@@**,,,,,,####::",
"--::::;;;;;;::::@@**,,,,,,####::",
"----;;;;;;;;$$$$@@**,,,,,,**##::",
"----;;;;;;;;$$$$@@**,,,,,,**##::",
"--;;;;::;;$$%%%%@@****,,,,****##",
"--;;;;::;;$$%%%%@@****,,,,****##",
";;----;;$$%%&&&&&&++********####",
";;----;;$$%%&&&&&&++********####",
"--::;;$$%%&&&&&&&&&&++++####oooo",
"--::;;$$%%&&&&&&&&&&++++####oooo",
"----;;$$<<&&%%%%&&&&%%$$oooo;;--",
"----;;$$<<&&%%%%&&&&%%$$oooo;;--",
"----$$%%&&&&&&%%&&%%%%$$oo;;--::",
"----$$%%&&&&&&%%&&%%%%$$oo;;--::",
"--::..&&&&%%&&&&%%%%$$oo----::--",
"--::..&&&&%%&&&&%%%%$$oo----::--",
";;..%%&&&&&&%%%%%%..oo;;;;::--;;",
";;..%%&&&&&&%%%%%%..oo;;;;::--;;",
"==..&&&&%%%%%%....XX;;----::::;;",
"==..&&&&%%%%%%....XX;;----::::;;",
"..%%%%%%%%....OOXX;;;;;;;;--::;;",
"..%%%%%%%%....OOXX;;;;;;;;--::;;",
"  %%%%....XXoo;;--::------;;;;--",
"  %%%%....XXoo;;--::------;;;;--",
"--    OOXX;;--::;;----;;--;;;;::",
"--    OOXX;;--::;;----;;--;;;;::"
};
