/* XPM */
static char *result[] = {
/* columns rows colors chars-per-pixel */
"32 32 14 1 ",
"  c #131313",
". c #3D5232",
"X c #415536",
"o c #46573A",
"O c #5B8D46",
"+ c #669151",
"@ c #6F9659",
"# c #799B60",
"$ c #76A261",
"% c #657392",
"& c #92A1B9",
"* c #C7CFDD",
"= c #FDD2ED",
"- c white",
/* pixels */
"@@##@@##@@##&&&&&&&&@@####@@##@@",
"@@##@@##@@##&&&&&&&&@@####@@##@@",
"@@$$##@@&&&&**----**&&&&##@@####",
"@@$$##@@&&&&**----**&&&&##@@####",
"@@++++++&&**--------**&&@@@@++++",
"@@++++++&&**--------**&&@@@@++++",
"++####&&**------------**&&##@@##",
"++####&&**------------**&&##@@##",
"++++@@**--------------**&&++@@##",
"++++@@**--------------**&&++@@##",
"++@@@@**----  ----  ----&&######",
"++@@@@**----  ----  ----&&######",
"@@++++&&--==  ----  ==--&&@@@@##",
"@@++++&&--==  ----  ==--&&@@@@##",
"++##@@&&----------------&&++@@@@",
"++##@@&&----------------&&++@@@@",
"++++@@&&**----    ------%%@@@@++",
"++++@@&&**----    ------%%@@@@++",
"++++@@&&**------------**%%@@++##",
"++++@@&&**------------**%%@@++##",
"++####%%******----******%%++##++",
"++####%%******----******%%++##++",
"@@@@@@%%&&************&&%%##++@@",
"@@@@@@%%&&************&&%%##++@@",
"OO++@@%%&&%%%%&&&&%%%%&&%%####@@",
"OO++@@%%&&%%%%&&&&%%%%&&%%####@@",
"@@++##%%%%XX..%%%%XXXX%%%%++##@@",
"@@++##%%%%XX..%%%%XXXX%%%%++##@@",
"@@$$@@@@XX..XXXX..oo....++@@@@++",
"@@$$@@@@XX..XXXX..oo....++@@@@++",
"++++++##++XX..ooXX....@@++@@@@##",
"++++++##++XX..ooXX....@@++@@@@##"
};
