/* XPM */
static char *result[] = {
/* columns rows colors chars-per-pixel */
"32 32 20 1 ",
"  c #131313",
". c #571C27",
"X c #7B1B26",
"o c #0C2E44",
"O c #134C4C",
"+ c #1B6348",
"@ c #891E2B",
"# c #B0202B",
"$ c #C42430",
"% c #D22D36",
"& c #EA323C",
"* c #DC4C53",
"= c #33984B",
"- c #5B8D46",
"; c #669151",
": c #6F9659",
"> c #799B60",
", c #76A261",
"< c #5AC54F",
"1 c #D3FC7E",
/* pixels */
"::>>::>>::>>::OOOO::::>>>>::>>::",
"::>>::>>::>>::OOOO::::>>>>::>>::",
"::,,>>::::>>OO<<11OO>>::>>::>>>>",
"::,,>>::::>>OO<<11OO>>::>>::>>>>",
"::;;;;;;@@@@OO==<<OO@@@@::::;;;;",
"::;;;;;;@@@@OO==<<OO@@@@::::;;;;",
";;>>@@@@&&%%oo====oo&&%%@@@@::>>",
";;>>@@@@&&%%oo====oo&&%%@@@@::>>",
";;@@&&%%%%##oo++oo%%##%%&&%%..>>",
";;@@&&%%%%##oo++oo%%##%%&&%%..>>",
";;..%%**####$$oo##########%%..>>",
";;..%%**####$$oo##########%%..>>",
"..%%%%##**################%%%%..",
"..%%%%##**################%%%%..",
"..############################..",
"..############################..",
"..##########################XX..",
"..##########################XX..",
"..XX########################XX..",
"..XX########################XX..",
"....XX####################XX....",
"....XX####################XX....",
"::..@@####################XX..::",
"::..@@####################XX..::",
"--..XXXXXX############XXXXXX..::",
"--..XXXXXX############XXXXXX..::",
"::;;    XXXXXXXXXXXXXXXX....>>::",
"::;;    XXXXXXXXXXXXXXXX....>>::",
"::,,::::                ;;::::;;",
"::,,::::                ;;::::;;",
";;;;;;>>;;::;;>>::;;;;::;;::::>>",
";;;;;;>>;;::;;>>::;;;;::;;::::>>"
};
